<?xml version="1.0" encoding="UTF-8" standalone="no"?>
<!DOCTYPE svg PUBLIC "-//W3C//DTD SVG 1.1//EN" "http://www.w3.org/Graphics/SVG/1.1/DTD/svg11.dtd">
<svg width="100%" height="100%" viewBox="0 0 2357 1075" version="1.1" xmlns="http://www.w3.org/2000/svg" xmlns:xlink="http://www.w3.org/1999/xlink" xml:space="preserve" xmlns:serif="http://www.serif.com/" style="fill-rule:evenodd;clip-rule:evenodd;stroke-linejoin:round;stroke-miterlimit:2;">
    <g transform="matrix(1,0,0,1,-281.386,-1041.2)">
        <g>
            <g transform="matrix(6.4368,0,0,6.4368,-8794.5,-2009.84)">
                <g>
                    <g transform="matrix(1.04545,0,0,1,-15.4545,0)">
                        <path d="M1446.85,580.324L1425.03,579.824L1403.65,641L1425.65,641L1446.85,580.324Z" style="fill:rgb(53,47,68);"/>
                    </g>
                    <path d="M1445.43,544L1410,641L1433,641L1460.39,566L1491.14,566C1515.91,566 1536,545.915 1536,521.14L1536,518.86C1536,495.033 1517.42,475.545 1493.97,474.088L1471,474L1462.6,497L1490.5,497C1496.73,497 1502.71,499.476 1507.12,503.883C1511.52,508.29 1514,514.267 1514,520.5C1514,520.5 1514,520.5 1514,520.5C1514,526.733 1511.52,532.71 1507.12,537.117C1502.71,541.524 1496.73,544 1490.5,544L1445.43,544Z" style="fill:rgb(53,47,68);"/>
                    <g transform="matrix(1.04545,-1.28031e-16,-1.22465e-16,-1,-15.4545,1115)">
                        <path d="M1446.85,580.324L1425.03,579.824L1403.65,641L1425.65,641L1446.85,580.324Z" style="fill:rgb(53,47,68);"/>
                    </g>
                    <g transform="matrix(1,-1.22465e-16,-1.22465e-16,-1,0,1115)">
                        <path d="M1445.43,544L1410,641L1433,641L1460.39,566L1491.14,566C1515.91,566 1536,545.915 1536,521.14L1536,518.86C1536,495.033 1517.42,475.545 1493.97,474.088L1471,474L1462.6,497L1490.5,497C1496.73,497 1502.71,499.476 1507.12,503.883C1511.52,508.29 1514,514.267 1514,520.5C1514,520.5 1514,520.5 1514,520.5C1514,526.733 1511.52,532.71 1507.12,537.117C1502.71,541.524 1496.73,544 1490.5,544L1445.43,544Z" style="fill:rgb(53,47,68);"/>
                    </g>
                </g>
            </g>
            <g transform="matrix(2.52769,0,0,2.52769,-1983.81,-1988.28)">
                <text x="1241.9px" y="1621.46px" style="font-family:'Roboto-Bold', 'Roboto';font-weight:700;font-size:238.427px;fill:rgb(53,47,68);">PI</text>
                <text x="1465.2px" y="1621.46px" style="font-family:'Roboto-Regular', 'Roboto';font-size:238.427px;fill:rgb(53,47,68);">BIO</text>
            </g>
        </g>
    </g>
</svg>
